<svg width="27" height="24" viewBox="54 1 26 23" fill="none" xmlns="http://www.w3.org/2000/svg">
<path d="M54.4911 7.28755C54.4911 8.91729 64.3233 13.3606 66.6203 13.3606C68.9173 13.3606 78.7495 8.91729 78.7495 7.28755C78.7495 5.65781 68.9173 1.21451 66.6203 1.21451C64.3233 1.21451 54.4911 5.65781 54.4911 7.28755Z" stroke="white" stroke-width="1.81362" stroke-linecap="round" stroke-linejoin="round"/>
<path d="M59.3423 10.9316L59.64 17.7697C59.6459 17.9066 59.6607 18.0437 59.7004 18.1749C59.8231 18.5803 60.0491 18.9487 60.394 19.1963C63.0921 21.1325 70.1474 21.1325 72.8456 19.1963C73.1905 18.9487 73.4165 18.5803 73.5391 18.1749C73.5788 18.0437 73.5936 17.9066 73.5996 17.7697L73.8973 10.9316" stroke="white" stroke-width="1.81362" stroke-linecap="round" stroke-linejoin="round"/>
<path d="M76.929 9.10981V17.6121M76.929 17.6121C75.9671 19.3688 75.5417 20.31 75.1096 21.8632C75.0159 22.4159 75.0904 22.6943 75.4712 22.9416C75.626 23.0421 75.8119 23.0778 75.9963 23.0778H77.8431C78.0394 23.0778 78.2375 23.0369 78.3992 22.9254C78.7532 22.6813 78.8444 22.4134 78.7484 21.8632C78.3697 20.421 77.8873 19.435 76.929 17.6121Z" stroke="white" stroke-width="1.81362" stroke-linecap="round" stroke-linejoin="round"/>
</svg>
