<svg width="88" height="25" viewBox="0 0 88 25" fill="none" xmlns="http://www.w3.org/2000/svg">
<path d="M12.5571 9.63466H12.0548C11.1077 9.63466 10.6342 9.63466 10.3399 9.92889C10.0457 10.2231 10.0457 10.6967 10.0457 11.6438V20.1826C10.0457 21.1298 10.0457 21.6033 10.3399 21.8976C10.6342 22.1918 11.1077 22.1918 12.0548 22.1918H12.5571C13.5043 22.1918 13.9778 22.1918 14.272 21.8976C14.5663 21.6033 14.5663 21.1298 14.5663 20.1826V11.6438C14.5663 10.6967 14.5663 10.2231 14.272 9.92889C13.9778 9.63466 13.5043 9.63466 12.5571 9.63466Z" stroke="white" stroke-width="1.5"/>
<path d="M14.5663 4.36066C14.5663 5.60898 13.5543 6.62094 12.306 6.62094C11.0577 6.62094 10.0457 5.60898 10.0457 4.36066C10.0457 3.11234 11.0577 2.10038 12.306 2.10038C13.5543 2.10038 14.5663 3.11234 14.5663 4.36066Z" stroke="white" stroke-width="1.5"/>
<path d="M20.419 9.63466H19.5891C18.642 9.63466 18.1685 9.63466 17.8742 9.92889C17.58 10.2231 17.58 10.6967 17.58 11.6438V20.1826C17.58 21.1298 17.58 21.6033 17.8742 21.8976C18.1685 22.1918 18.642 22.1918 19.5891 22.1918H20.0914C21.0385 22.1918 21.5121 22.1918 21.8063 21.8976C22.1006 21.6033 22.1006 21.1298 22.1006 20.1827L22.1006 16.6668C22.1006 15.0023 22.6311 13.6531 24.198 13.6531C24.9814 13.6531 25.6165 14.3277 25.6165 15.1599V19.6805C25.6165 20.6276 25.6165 21.1012 25.9107 21.3954C26.205 21.6896 26.6785 21.6896 27.6257 21.6896H28.1267C29.0736 21.6896 29.5471 21.6896 29.8413 21.3955C30.1355 21.1013 30.1356 20.6279 30.1358 19.681L30.1372 14.1555C30.1372 11.6588 27.7627 9.6349 25.4124 9.6349C24.0745 9.6349 22.8808 10.2907 22.1006 11.3163C22.1006 10.6834 22.1006 10.3669 21.9631 10.1319C21.876 9.98311 21.7521 9.85921 21.6033 9.77215C21.3683 9.63466 21.0518 9.63466 20.419 9.63466Z" stroke="white" stroke-width="1.5" stroke-linejoin="round"/>
<path d="M54.4911 7.28755C54.4911 8.91729 64.3233 13.3606 66.6203 13.3606C68.9173 13.3606 78.7495 8.91729 78.7495 7.28755C78.7495 5.65781 68.9173 1.21451 66.6203 1.21451C64.3233 1.21451 54.4911 5.65781 54.4911 7.28755Z" stroke="white" stroke-width="1.81362" stroke-linecap="round" stroke-linejoin="round"/>
<path d="M59.3423 10.9316L59.64 17.7697C59.6459 17.9066 59.6607 18.0437 59.7004 18.1749C59.8231 18.5803 60.0491 18.9487 60.394 19.1963C63.0921 21.1325 70.1474 21.1325 72.8456 19.1963C73.1905 18.9487 73.4165 18.5803 73.5391 18.1749C73.5788 18.0437 73.5936 17.9066 73.5996 17.7697L73.8973 10.9316" stroke="white" stroke-width="1.81362" stroke-linecap="round" stroke-linejoin="round"/>
<path d="M76.929 9.10981V17.6121M76.929 17.6121C75.9671 19.3688 75.5417 20.31 75.1096 21.8632C75.0159 22.4159 75.0904 22.6943 75.4712 22.9416C75.626 23.0421 75.8119 23.0778 75.9963 23.0778H77.8431C78.0394 23.0778 78.2375 23.0369 78.3992 22.9254C78.7532 22.6813 78.8444 22.4134 78.7484 21.8632C78.3697 20.421 77.8873 19.435 76.929 17.6121Z" stroke="white" stroke-width="1.81362" stroke-linecap="round" stroke-linejoin="round"/>
</svg>
